<svg width="20" height="20" viewBox="0 0 20 20" fill="none" xmlns="http://www.w3.org/2000/svg">
<path d="M6.24854 1C3.35429 1 1 3.35646 1 6.25146V13.7515C1 16.6457 3.35646 19 6.25146 19H13.7515C16.6457 19 19 16.6435 19 13.7485V6.24854C19 3.35429 16.6435 1 13.7485 1H6.24854ZM15.25 4C15.664 4 16 4.336 16 4.75C16 5.164 15.664 5.5 15.25 5.5C14.836 5.5 14.5 5.164 14.5 4.75C14.5 4.336 14.836 4 15.25 4ZM10 5.5C12.4818 5.5 14.5 7.51825 14.5 10C14.5 12.4818 12.4818 14.5 10 14.5C7.51825 14.5 5.5 12.4818 5.5 10C5.5 7.51825 7.51825 5.5 10 5.5ZM10 7C9.20435 7 8.44129 7.31607 7.87868 7.87868C7.31607 8.44129 7 9.20435 7 10C7 10.7956 7.31607 11.5587 7.87868 12.1213C8.44129 12.6839 9.20435 13 10 13C10.7956 13 11.5587 12.6839 12.1213 12.1213C12.6839 11.5587 13 10.7956 13 10C13 9.20435 12.6839 8.44129 12.1213 7.87868C11.5587 7.31607 10.7956 7 10 7Z" fill="#465169"/>
</svg>
