<svg width="20" height="20" viewBox="0 0 20 20" fill="none" xmlns="http://www.w3.org/2000/svg">
<g clip-path="url(#clip0_105_1470)">
<path d="M20 3.88782C19.2513 4.21474 18.4993 4.46154 17.666 4.54487C18.4993 4.05128 19.1667 3.23077 19.4987 2.32692C18.6654 2.82051 17.832 3.14744 16.9173 3.3141C16.084 2.49359 15 2 13.8346 2C11.582 2 9.74935 3.80449 9.74935 6.01923C9.74935 6.34936 9.74935 6.67628 9.83398 6.92308C6.41602 6.75962 3.41797 5.19872 1.41602 2.73718C0.999349 3.3141 0.833333 4.05128 0.833333 4.78846C0.833333 6.1859 1.58203 7.41667 2.66602 8.15385C1.9987 8.07051 1.33464 7.90705 0.833333 7.66026C0.833333 7.66026 0.833333 7.66026 0.833333 7.74359C0.833333 9.71154 2.24935 11.3526 4.08203 11.6827C3.75 11.7628 3.41797 11.8462 3.0013 11.8462C2.75065 11.8462 2.5 11.8462 2.24935 11.7628C2.75065 13.4038 4.2513 14.5545 6.08398 14.5545C4.66797 15.6218 2.91667 16.2756 0.999349 16.2756C0.667317 16.2756 0.332032 16.2756 0 16.1955C1.83268 17.3429 4.00065 18 6.25 18C13.8346 18 17.9167 11.8462 17.9167 6.51282C17.9167 6.34936 17.9167 6.1859 17.9167 6.01923C18.75 5.44551 19.4173 4.70833 20 3.88782Z" fill="#465169"/>
</g>
<defs>
<clipPath id="clip0_105_1470">
<rect width="20" height="20" fill="white"/>
</clipPath>
</defs>
</svg>
