<?xml version="1.0" encoding="UTF-8"?>
<svg id="Layer_2" data-name="Layer 2" xmlns="http://www.w3.org/2000/svg" xmlns:xlink="http://www.w3.org/1999/xlink" viewBox="0 0 129 129">
  <defs>
    <style>
      .cls-1 {
        fill: url(#New_Gradient_Swatch_7_copy);
      }

      .cls-1, .cls-2 {
        stroke-width: 0px;
      }

      .cls-2 {
        fill: #fff;
      }
    </style>
    <linearGradient id="New_Gradient_Swatch_7_copy" data-name="New Gradient Swatch 7 copy" x1="0" y1="64.5" x2="129" y2="64.5" gradientUnits="userSpaceOnUse">
      <stop offset=".02" stop-color="#00bddd"/>
      <stop offset=".3" stop-color="#09d"/>
      <stop offset=".77" stop-color="#0063de"/>
      <stop offset="1" stop-color="#004edf"/>
    </linearGradient>
  </defs>
  <g id="Layer_1-2" data-name="Layer 1">
    <g>
      <circle class="cls-1" cx="64.5" cy="64.5" r="64.5"/>
      <path class="cls-2" d="M103.84,28.35c-2.45-2.55-5.88-3.93-9.41-3.81-5.95,0-12.59,3.33-17.78,8.91-6.41,6.83-9.44,15.96-7.78,22.97l-4.34,4.67-4.33-4.67c1.65-7-1.4-16.13-7.78-23.01-5.78-6.22-13.34-9.59-19.66-8.8-.35.04-.67.22-.9.48s-.35.61-.35.96c0,.35.14.69.38.95l11.59,12.49-.95,1.03-12.97-13.97c-.22-.24-.52-.39-.84-.44-.32-.05-.65.02-.93.18-.95.56-1.82,1.25-2.57,2.06-.93,1-1.68,2.16-2.23,3.41-.11.26-.15.54-.1.81.05.28.17.53.36.74l12.97,13.98-.95,1.03-11.1-11.97c-.25-.28-.61-.44-.98-.46-.38-.02-.74.11-1.02.37-.28.25-.45.6-.47.98-.38,6.67,2.69,14.16,8.2,20.1,6.37,6.86,14.86,10.16,21.43,8.44l4.42,4.76-22.46,24.19c-.23.26-.36.6-.36.95s.13.69.36.95l6.84,7.36h0c.27.29.65.46,1.05.46s.78-.17,1.05-.46l22.31-24,22.33,24.04c.27.29.65.46,1.05.46s.78-.17,1.05-.46l6.83-7.36h0c.23-.26.36-.6.36-.95s-.13-.69-.36-.95l-22.46-24.23,4.41-4.76c6.58,1.71,15.06-1.59,21.43-8.45,8.71-9.37,10.81-22.38,4.68-28.99h0ZM41.15,100.98l-4.89-5.27,21.42-23.06,4.93,5.24-21.46,23.09ZM87.89,100.98l-35.08-37.78c-.19-.2-.43-.35-.7-.41-.27-.07-.55-.06-.81.03-5.65,1.91-13.41-1.05-19.33-7.41-3.74-3.93-6.26-8.87-7.24-14.21l9.47,10.21c.27.29.65.46,1.05.46s.78-.17,1.05-.46l2.86-3.13h0c.23-.26.36-.6.36-.95s-.13-.69-.36-.95l-13.17-14.27c.36-.65.79-1.25,1.3-1.79.29-.34.61-.66.95-.95l13.21,14.24c.27.29.65.46,1.05.46.4,0,.78-.16,1.06-.46l2.86-3.13c.23-.26.36-.6.36-.95s-.13-.69-.36-.95l-10.24-11.16c4.76.52,9.91,3.37,14.14,7.92,5.95,6.43,8.74,14.89,6.92,21.05h0c-.14.48-.02,1,.32,1.37l5.9,6.35,6.84,7.36,22.48,24.25-4.89,5.27ZM97.05,55.41c-5.86,6.36-13.67,9.35-19.31,7.41-.26-.09-.54-.1-.81-.03-.27.07-.51.21-.7.41l-4.88,5.25-4.89-5.27,5.02-5.4h0c.35-.37.47-.9.32-1.38-1.82-6.17.95-14.63,6.92-21.04,4.65-5,10.56-7.95,15.68-7.95,2.75-.1,5.41.97,7.33,2.95,5.13,5.49,3.04,16.74-4.68,25.04h-.01Z"/>
    </g>
  </g>
</svg>