<?xml version="1.0" encoding="UTF-8"?>
<svg id="Layer_2" data-name="Layer 2" xmlns="http://www.w3.org/2000/svg" xmlns:xlink="http://www.w3.org/1999/xlink" viewBox="0 0 129 129">
  <defs>
    <style>
      .cls-1 {
        fill: url(#New_Gradient_Swatch_7_copy);
      }

      .cls-1, .cls-2 {
        stroke-width: 0px;
      }

      .cls-2 {
        fill: #fff;
        fill-rule: evenodd;
      }
    </style>
    <linearGradient id="New_Gradient_Swatch_7_copy" data-name="New Gradient Swatch 7 copy" x1="0" y1="64.5" x2="129" y2="64.5" gradientUnits="userSpaceOnUse">
      <stop offset=".02" stop-color="#00bddd"/>
      <stop offset=".3" stop-color="#09d"/>
      <stop offset=".77" stop-color="#0063de"/>
      <stop offset="1" stop-color="#004edf"/>
    </linearGradient>
  </defs>
  <g id="Layer_1-2" data-name="Layer 1">
    <g>
      <circle class="cls-1" cx="64.5" cy="64.5" r="64.5"/>
      <g>
        <path class="cls-2" d="M45,23.15l-4.71,4.71c-1.02,1.02-1.6,2.41-1.6,3.86s.58,2.84,1.6,3.86l2.13,2.13c.34.34.53.81.53,1.29s-.19.95-.53,1.29l-4.71,4.71c-.71.71-.71,1.86,0,2.58s1.86.71,2.58,0l4.71-4.71c1.02-1.02,1.6-2.41,1.6-3.86s-.58-2.84-1.6-3.86l-2.13-2.13c-.34-.34-.53-.8-.53-1.29s.19-.95.53-1.29l4.71-4.71c.71-.71.71-1.86,0-2.58-.71-.71-1.86-.71-2.58,0Z"/>
        <path class="cls-2" d="M59.57,23.15s-2.61,2.61-4.71,4.71c-1.02,1.02-1.6,2.41-1.6,3.86s.58,2.84,1.6,3.86l2.13,2.13c.34.34.53.81.53,1.29s-.19.95-.53,1.29l-4.71,4.71c-.71.71-.71,1.86,0,2.58s1.86.71,2.58,0c0,0,2.61-2.61,4.71-4.71,1.02-1.02,1.6-2.41,1.6-3.86s-.58-2.84-1.6-3.86l-2.13-2.13c-.34-.34-.53-.8-.53-1.29s.19-.95.53-1.29l4.71-4.71c.71-.71.71-1.86,0-2.58-.71-.71-1.86-.71-2.58,0Z"/>
        <path class="cls-2" d="M74.14,23.15l-4.71,4.71c-1.02,1.02-1.6,2.41-1.6,3.86s.58,2.84,1.6,3.86l2.13,2.13c.34.34.53.81.53,1.29s-.19.95-.53,1.29l-4.71,4.71c-.71.71-.71,1.86,0,2.58s1.86.71,2.58,0l4.71-4.71c1.02-1.02,1.6-2.41,1.6-3.86s-.58-2.84-1.6-3.86l-2.13-2.13c-.34-.34-.53-.8-.53-1.29s.19-.95.53-1.29l4.71-4.71c.71-.71.71-1.86,0-2.58-.71-.71-1.86-.71-2.58,0Z"/>
        <path class="cls-2" d="M39,95.46h-10.93c-3.02,0-5.46,2.45-5.46,5.46s2.45,5.46,5.46,5.46h58.28c3.02,0,5.46-2.45,5.46-5.46s-2.45-5.46-5.46-5.46h-10.93c2.67-1.42,5.14-3.25,7.32-5.43,1.68-1.68,3.14-3.52,4.37-5.5h6.52c7.04,0,12.75-5.71,12.75-12.75v-10.93c0-5.03-4.08-9.11-9.11-9.11H28.08c-3.02,0-5.46,2.45-5.46,5.46v10.93c0,8.21,3.26,16.09,9.07,21.89,2.18,2.18,4.65,4,7.32,5.43h0ZM88.17,100.92c0-1.01-.82-1.82-1.82-1.82H28.08c-1.01,0-1.82.82-1.82,1.82s.82,1.82,1.82,1.82h58.28c1.01,0,1.82-.82,1.82-1.82ZM88.17,55.39v12.75c0,7.24-2.88,14.19-8,19.32-5.12,5.12-12.07,8-19.32,8h-7.28c-7.24,0-14.19-2.88-19.32-8-5.12-5.12-8-12.07-8-19.32v-10.93c0-1.01.82-1.82,1.82-1.82h60.1ZM91.82,55.39v3.64h5.46c1.01,0,1.82.82,1.82,1.82v10.93c0,3.02-2.45,5.46-5.46,5.46h-3.19c-.38,1.24-.84,2.46-1.38,3.64h4.57c5.03,0,9.11-4.08,9.11-9.11v-10.93c0-3.02-2.45-5.46-5.46-5.46h-5.46ZM91.82,62.68v5.46c0,1.84-.16,3.67-.49,5.46h2.31c1.01,0,1.82-.82,1.82-1.82v-9.11h-3.64Z"/>
      </g>
    </g>
  </g>
</svg>