<?xml version="1.0" encoding="UTF-8"?>
<svg id="Layer_2" data-name="Layer 2" xmlns="http://www.w3.org/2000/svg" xmlns:xlink="http://www.w3.org/1999/xlink" viewBox="0 0 129 129">
  <defs>
    <style>
      .cls-1 {
        fill: url(#New_Gradient_Swatch_7_copy);
      }

      .cls-1, .cls-2 {
        stroke-width: 0px;
      }

      .cls-2 {
        fill: #fff;
      }
    </style>
    <linearGradient id="New_Gradient_Swatch_7_copy" data-name="New Gradient Swatch 7 copy" x1="0" y1="64.5" x2="129" y2="64.5" gradientUnits="userSpaceOnUse">
      <stop offset=".02" stop-color="#00bddd"/>
      <stop offset=".3" stop-color="#09d"/>
      <stop offset=".77" stop-color="#0063de"/>
      <stop offset="1" stop-color="#004edf"/>
    </linearGradient>
  </defs>
  <g id="Layer_1-2" data-name="Layer 1">
    <g>
      <circle class="cls-1" cx="64.5" cy="64.5" r="64.5"/>
      <path class="cls-2" d="M16.48,33.99c-1.23,0-2.22-.99-2.22-2.22s.99-2.22,2.22-2.22h13.88c1.05,0,1.93.73,2.16,1.71l1.82,6.68h70.18c1.23,0,2.22.99,2.22,2.22,0,.22-.03.44-.1.64l-3.64,18.13c-.01.14-.04.28-.08.41l-3.68,18.33c-.21,1.05-1.14,1.78-2.17,1.78h0s-51.42,0-51.42,0l1.82,6.69h47.37c1.23,0,2.22.99,2.22,2.22s-.99,2.22-2.22,2.22h-49.07c-.98,0-1.88-.65-2.15-1.64l-3.01-11.06s-.03-.09-.04-.14l-5.01-18.41s-.02-.09-.04-.13l-1.26-4.63-3.77-13.85h0s-1.84-6.75-1.84-6.75h-12.18,0ZM86.21,93.58c2.19,0,4.18.89,5.61,2.33,1.44,1.44,2.32,3.42,2.32,5.61s-.89,4.18-2.32,5.61c-1.44,1.44-3.42,2.32-5.61,2.32s-4.18-.89-5.61-2.32c-1.44-1.44-2.32-3.42-2.32-5.61s.89-4.18,2.32-5.61c1.44-1.44,3.42-2.33,5.61-2.33ZM88.68,99.05c-.63-.63-1.51-1.02-2.47-1.02s-1.84.39-2.47,1.02c-.63.63-1.02,1.51-1.02,2.47s.39,1.84,1.02,2.47c.63.63,1.51,1.02,2.47,1.02s1.84-.39,2.47-1.02c.63-.63,1.02-1.51,1.02-2.47s-.39-1.84-1.02-2.47h0ZM55.73,93.58c2.19,0,4.18.89,5.61,2.33,1.44,1.44,2.32,3.42,2.32,5.61s-.89,4.18-2.32,5.61c-1.44,1.44-3.42,2.32-5.61,2.32s-4.18-.89-5.61-2.32c-1.44-1.44-2.32-3.42-2.32-5.61s.89-4.18,2.32-5.61c1.44-1.44,3.42-2.33,5.61-2.33ZM58.2,99.05c-.63-.63-1.51-1.02-2.47-1.02s-1.84.39-2.47,1.02-1.02,1.51-1.02,2.47.39,1.84,1.02,2.47c.63.63,1.51,1.02,2.47,1.02s1.84-.39,2.47-1.02c.63-.63,1.02-1.51,1.02-2.47s-.39-1.84-1.02-2.47h0ZM87.07,42.38l-1.3,14.09h13.21l2.83-14.09h-14.74ZM85.36,60.93l-1.3,14.09h11.19l2.83-14.09h-12.73ZM54.22,75.02l-1.76-14.09h-11.86l3.84,14.09h9.78ZM51.91,56.48l-1.76-14.09h-14.6l3.84,14.09h12.52ZM54.63,42.38l1.76,14.09h24.93l1.3-14.09h-27.99,0ZM56.94,60.92l1.76,14.09h20.91l1.3-14.09h-23.97Z"/>
    </g>
  </g>
</svg>